<svg xmlns="http://www.w3.org/2000/svg" aria-hidden="true" style="position:absolute;width:0;height:0;overflow:hidden">
  <defs>
    <symbol id="icon-Airbnb" viewBox="0 0 30 32">
      <path fill="#fff" d="M15.04 24.361c-1.777-2.271-2.793-4.232-3.148-5.987-1.574-6.348 7.922-6.348 6.348 0-.406 1.755-1.473 3.819-3.199 5.987zm9.648 5.213c-2.945 1.29-5.891-.774-8.379-3.561 7.313-9.29 3.301-14.348-1.27-14.348-3.859 0-5.992 3.252-5.129 7.174.508 2.116 1.777 4.439 3.859 7.122-2.285 2.529-4.215 3.768-5.992 3.922-3.504.568-6.246-2.89-4.926-6.451 1.066-2.787 7.871-16.516 8.176-17.238 1.066-2.168 1.777-4.077 4.164-4.077 2.285 0 3.098 1.806 4.215 4.284 2.59 5.006 6.297 12.645 8.074 17.032.762 2.323-.203 5.058-2.793 6.142zm3.352-9.703C18.95.31 18.442 0 15.04 0c-3.199 0-4.57 2.271-5.941 5.161C1.583 20.387.923 22.451.771 22.709c-1.727 4.955 1.93 9.29 6.297 9.29 1.523 0 4.316-.413 7.922-4.439 4.164 4.593 7.16 4.439 7.922 4.439 4.418 0 8.074-4.387 6.297-9.29.051-.31-1.168-2.787-1.168-2.839z" style="fill:var(--color1, #fff)"/>
    </symbol>
    <symbol id="icon-stars" viewBox="0 0 32 32">
      <path fill="#52503b" d="M31.879 12.053c-.213-.64-.747-1.12-1.387-1.227l-8.907-1.387-4-8.427c-.32-.64-.907-1.013-1.6-1.013s-1.28.373-1.547 1.013l-4 8.48-8.96 1.44c-.64.107-1.173.587-1.387 1.227s-.053 1.387.427 1.867l6.453 6.613-1.493 9.227c-.107.693.16 1.387.747 1.813.32.213.64.32.96.32.267 0 .587-.053.8-.213l8-4.373 7.947 4.32a1.71 1.71 0 0 0 1.813-.107c.587-.427.853-1.12.747-1.813l-1.493-9.28 6.453-6.613c.48-.48.64-1.227.427-1.867zm-1.226 1.12-6.4 6.613c-.213.213-.32.587-.267.907l1.493 9.28c.053.373-.107.64-.32.747-.107.053-.373.213-.693.053l-8-4.32a1.02 1.02 0 0 0-.96 0l-8 4.373c-.32.16-.587.053-.693-.053-.16-.107-.373-.427-.32-.747l1.547-9.227c.053-.32-.053-.693-.267-.907L1.32 13.279a.817.817 0 0 1-.213-.8c.107-.267.267-.427.533-.48l8.96-1.44c.32-.053.64-.267.747-.587l4-8.48c.16-.267.373-.427.64-.427s.48.16.587.427l4 8.48c.16.32.427.533.747.587l8.907 1.387c.267.053.48.213.533.48.16.16.16.533-.107.747z" style="fill:var(--color2, #52503b)"/>
    </symbol>
    <symbol id="icon-bread" viewBox="0 0 72 32">
      <path fill="#52503b" d="M36.058 1C15.922 1 0 9.468 0 20.113c0 .968.117 2.056.468 3.145.702 2.177 2.341 3.871 4.566 4.597C11.005 29.791 22.829 31 35.941 31s24.936-1.21 30.907-3.145a7.138 7.138 0 0 0 4.566-4.476l.117-.242c.234-1.089.469-2.056.469-3.024C72.116 9.347 56.195 1 36.058 1zm31.726 20.927v.121a2.628 2.628 0 0 1-1.873 1.815c-5.619 1.814-17.326 2.903-29.853 2.903s-24.234-1.21-29.736-2.903c-.937-.363-1.639-.968-1.873-1.815-.234-.605-.234-1.331-.234-1.935 0-4.234 4.097-8.226 10.536-11.008 1.171 5.202 4.8 8.952 9.132 8.952 1.171 0 2.107-.968 2.107-2.177s-.937-2.177-2.107-2.177c-2.459 0-4.683-2.54-5.268-6.169a57.218 57.218 0 0 1 11.824-2.298c.703 5.927 4.215 12.702 9.366 12.702 1.171 0 2.107-.968 2.107-2.177s-.937-2.177-2.107-2.177c-2.224 0-4.683-4.234-5.268-8.71h1.522c3.512 0 7.024.242 10.185.847.234 6.653 4.449 12.097 9.483 12.097 1.171 0 2.107-.968 2.107-2.177s-.937-2.177-2.107-2.177c-2.693 0-4.917-3.145-5.385-7.016 10.302 2.54 17.561 7.621 17.561 13.306.117.968 0 1.573-.117 2.177z" style="fill:var(--color2, #52503b)"/>
    </symbol>
    <symbol id="icon-fork" viewBox="0 0 27 32">
      <path fill="#52503b" d="M20.99 0c3.073 0 5.625 2.498 5.677 5.672v11.187c0 .937-.729 1.665-1.667 1.665h-1.094v11.083c0 1.301-1.094 2.393-2.396 2.393H20c-1.302 0-2.396-1.093-2.396-2.393V1.666c0-.937.729-1.665 1.667-1.665h1.719zM5.625.052c.521 0 .938.416.938.937V8.95H9.48V1.041c0-.52.417-.937.938-.937s.885.416.937.885v13.32c0 .78-.573 1.353-1.354 1.353H8.803v13.893c0 1.301-1.094 2.393-2.396 2.393H4.949c-1.302 0-2.396-1.093-2.396-2.393V15.61H1.355c-.781 0-1.354-.572-1.354-1.353V.989c0-.468.365-.937.885-.937s.938.416.938.937v7.909h2.865V.989c0-.52.417-.937.938-.937zm16.458 18.472h-2.656v11.083c0 .312.26.572.573.572h1.51c.313 0 .573-.312.573-.624V18.524zM6.979 15.662H4.375v13.945c0 .312.26.572.573.572h1.458c.313 0 .573-.26.573-.572V15.662zM20.938 1.821h-1.563v14.881h5.417V5.671a3.844 3.844 0 0 0-3.854-3.85zM9.531 10.719H1.823v3.122h7.708v-3.122z" style="fill:var(--color2, #52503b)"/>
    </symbol>
    <symbol id="icon-mouse" viewBox="0 0 30 32">
      <path fill="none" stroke="#fff" stroke-miterlimit="10" stroke-width=".985" d="M23.077 19.385c0 4.569-3.739 8.308-8.308 8.308s-8.308-3.739-8.308-8.308v-9.231c0-4.569 3.739-8.308 8.308-8.308s8.308 3.739 8.308 8.308v9.231z" style="stroke:var(--color1, #fff)"/>
      <path fill="none" stroke="#fff" stroke-width=".985" d="M14.769 6.4v4.923" style="stroke:var(--color1, #fff)"/>
    </symbol>
    <symbol id="icon-dress" viewBox="0 0 27 32">
      <path fill="#52503b" d="m25.113 21.351-9.424-4.935c.104-.312 0-.727-.311-.935-.363-.312-.932-.26-1.294.104-.104.156-.518.26-.984.156-.414-.104-.673-.416-.725-.883-.052-.675.259-1.143 1.036-1.455.518-.208.88-.727.828-1.299V8.727c1.968-.416 3.418-2.182 3.418-4.312 0-2.442-1.968-4.416-4.401-4.416S8.855 1.973 8.855 4.415a4.398 4.398 0 0 0 3.521 4.312l.052 3.065c-1.294.675-2.019 1.818-1.864 3.221.052.519.207.935.466 1.351l-9.476 4.987C.777 21.715.26 22.442.052 23.273v.052C0 23.533 0 23.741 0 23.948v5.143A2.9 2.9 0 0 0 2.9 32h20.867a2.9 2.9 0 0 0 2.9-2.909v-5.143c0-1.143-.621-2.13-1.553-2.597zM10.719 4.416c0-1.455 1.139-2.597 2.589-2.597s2.589 1.143 2.589 2.597-1.139 2.597-2.589 2.597a2.568 2.568 0 0 1-2.589-2.597zm2.019 13.142.052-.052c.259.052.466.104.725.104.155 0 .311 0 .466-.052l9.527 4.987H3.159l9.579-4.987zm11.029 12.624H2.848a1.095 1.095 0 0 1-1.087-1.091v-4.675h23.094v4.675c0 .571-.518 1.091-1.087 1.091z" style="fill:var(--color2, #52503b)"/>
    </symbol>

    <symbol id="icon-bed" viewBox="0 0 32 32">
      <path fill="#52503b" d="M27.18 22.909v-.104L24.117 9.974V2.805C24.117 1.247 22.892 0 21.36 0H10.537C9.005 0 7.78 1.247 7.78 2.805v7.169L4.717 22.805c0 .052-.051.156-.051.208v8.052c0 .519.408.935.919.935s.919-.416.919-.935V29.61c.204-.571 3.267-1.974 9.495-1.974s9.291 1.455 9.495 1.974v1.455c0 .519.408.935.919.935s.919-.416.919-.935v-8c-.102-.052-.153-.104-.153-.156zM9.363 11.013h13.12l2.655 11.117H6.709l2.655-11.117zm.205-8.208c0-.519.408-.987.97-.987h10.823c.511 0 .97.416.97.987v6.39H9.568v-6.39zm6.381 23.013c-2.859 0-7.096.364-9.495 1.558v-3.429h18.94v3.429c-2.348-1.195-6.586-1.558-9.444-1.558z" style="fill:var(--color2, #52503b)"/>
    </symbol>
    <symbol id="icon-door" viewBox="0 0 32 32">
      <path fill="#52503b" d="M24.352 0c1.593 0 2.93 1.301 2.981 2.966v26.016c0 1.665-1.336 3.018-2.981 3.018H7.648c-1.645 0-2.981-1.353-2.981-3.018V2.966C4.667 1.301 6.003 0 7.597 0h16.756zm-.051 1.769H7.597c-.668 0-1.182.572-1.182 1.197v26.016c0 .676.565 1.197 1.182 1.197h16.704c.668 0 1.182-.572 1.182-1.197V2.966c0-.676-.565-1.197-1.182-1.197zm-2.724 12.124c.925 0 1.748.78 1.748 1.769s-.771 1.769-1.748 1.769-1.748-.78-1.748-1.769.771-1.769 1.748-1.769z" style="fill:var(--color2, #52503b)"/>
    </symbol>
    <symbol id="icon-bath" viewBox="0 0 32 32">
      <path fill="#52503b" d="M31.065 14.576H6.13V4.446c0-.686.519-1.213 1.195-1.213h4v1.53c-1.091.158-1.974 1.108-1.974 2.269v2.321c0 .528.416.95.935.95h3.688a.939.939 0 0 0 .935-.95V7.032a2.306 2.306 0 0 0-1.714-2.216V2.284a.939.939 0 0 0-.935-.95H7.325c-1.662 0-3.013 1.372-3.013 3.06v10.129H.935c-.519 0-.935.422-.935.95s.416.95.935.95h1.247v4.221c0 3.113 2.286 5.698 5.247 6.12l-1.143 2.585a.912.912 0 0 0 .468 1.213c.104.053.26.105.364.105a.923.923 0 0 0 .831-.528l1.455-3.271h14.65l1.455 3.271c.156.369.468.528.831.528.104 0 .26 0 .364-.105.468-.211.675-.739.468-1.213l-1.299-2.902a6.26 6.26 0 0 0 3.948-5.803v-4.221h1.247a.939.939 0 0 0 .935-.95c0-.475-.416-.897-.935-.897zm-18.026-6.12h-1.87V7.031a.47.47 0 0 1 .467-.475h.935c.26 0 .467.211.467.475v1.425zM28 20.643c0 2.374-1.922 4.379-4.312 4.379H8.311c-2.338 0-4.312-1.952-4.312-4.379v-4.221h24v4.221z" style="fill:var(--color2, #52503b)"/>
    </symbol>
    <symbol id="icon-logo-s" viewBox="0 0 91 32">
      <path   d="m0 0 91.022.003v31.984L0 32V0zm29.706 2.108H2.095v27.783h27.611V2.108zm59.229-.005H31.801v27.783h57.134V2.103zM60.019 16.942v5.111c0 .771.178 1.332.528 1.681.355.35.79.526 1.313.526.52 0 .958-.176 1.31-.526s.528-.91.528-1.681v-5.111h1.74v5.148c0 1.22-.347 2.159-1.045 2.821-.698.665-1.541.998-2.533.998-1.003 0-1.849-.334-2.541-.998-.692-.662-1.04-1.601-1.04-2.821v-5.148h1.74zm10.851-.091c.608 0 1.207.133 1.804.4s1.13.625 1.602 1.073l-1.136 1.052a3.987 3.987 0 0 0-1.127-.635c-.435-.16-.814-.24-1.143-.24h-.098c-.371 0-.716.077-1.04.235s-.485.408-.485.755c0 .27.127.47.382.595.257.128.621.221 1.09.28l.708.077c.984.117 1.751.387 2.3.806.551.416.827 1.057.827 1.919 0 .83-.324 1.492-.965 1.986-.645.494-1.467.747-2.464.755h-.077c-.83 0-1.568-.168-2.212-.502s-1.154-.763-1.53-1.289l1.132-1.049c.228.32.568.598 1.021.835s.984.355 1.589.355h.077c.511-.008.92-.109 1.228-.304s.462-.456.462-.787c0-.355-.141-.611-.417-.766-.279-.157-.682-.267-1.212-.336l-.692-.077c-1.992-.238-2.986-1.046-2.986-2.434 0-.814.308-1.463.926-1.946.618-.488 1.395-.739 2.339-.758h.098zm-19.143.002c1.244 0 2.305.443 3.18 1.324.881.886 1.321 1.954 1.321 3.205 0 1.249-.44 2.319-1.321 3.203-.875.881-1.936 1.324-3.18 1.324s-2.302-.443-3.178-1.324c-.875-.883-1.31-1.954-1.31-3.203 0-1.252.435-2.319 1.31-3.205.875-.881 1.934-1.324 3.178-1.324zm-11.712.089v3.59h3.416v-3.59h1.74v8.879h-1.74v-3.64h-3.416v3.64h-1.74v-8.879h1.74zm42.393-.001v1.649h-4.135v1.94h3.819v1.649h-3.819v1.991h4.135v1.649h-5.874V16.94h5.874zM25.746 6.304v2.1H8.357v15.181h15.301v-6.539h-7.755v-2.1h9.843v10.74H6.27V6.305h19.476zm25.981 12.198c-.782 0-1.435.27-1.96.811-.528.542-.788 1.23-.788 2.068 0 .843.26 1.537.788 2.074.525.536 1.178.806 1.96.806.79 0 1.445-.27 1.973-.806.523-.536.788-1.23.788-2.074 0-.838-.265-1.527-.796-2.068-.528-.542-1.183-.811-1.965-.811zM42.171 6.094c1.31 0 2.419.491 3.329 1.471l-1.135 1.052c-.581-.584-1.31-.875-2.194-.875-.782 0-1.435.27-1.96.806-.528.536-.788 1.23-.788 2.074 0 .838.26 1.529.788 2.068.525.542 1.178.814 1.96.814.597 0 1.125-.165 1.589-.496v-1.535h-1.615v-1.318H45.5v3.523c-.91.982-2.018 1.473-3.329 1.473-1.244 0-2.302-.443-3.177-1.326-.875-.881-1.31-1.951-1.31-3.203 0-1.249.435-2.319 1.31-3.203s1.934-1.324 3.177-1.324zm28.701-.014c.605 0 1.207.133 1.801.4a5.558 5.558 0 0 1 1.602 1.073l-1.136 1.052c-.318-.262-.695-.475-1.127-.635s-.814-.24-1.14-.24h-.101c-.371 0-.716.077-1.04.235-.324.155-.485.408-.485.755 0 .27.127.47.385.595.257.128.618.222 1.09.28l.706.075c.983.117 1.75.387 2.299.806.552.416.828 1.06.828 1.922 0 .827-.321 1.492-.965 1.983-.642.496-1.464.747-2.464.758h-.077c-.83 0-1.567-.168-2.212-.502-.642-.336-1.151-.763-1.53-1.289l1.135-1.052c.225.323.568.6 1.021.835.451.238.984.358 1.586.358h.077c.514-.008.92-.112 1.227-.304.308-.195.462-.459.462-.787 0-.355-.14-.611-.416-.769-.279-.155-.679-.267-1.21-.336l-.695-.075c-1.992-.238-2.987-1.049-2.987-2.437 0-.811.308-1.46.926-1.946s1.398-.737 2.339-.755h.101zm-20.979.089v5.111c0 .771.178 1.332.528 1.681.355.35.79.526 1.313.526.52 0 .958-.176 1.31-.526s.528-.91.528-1.681V6.169h1.74v5.148c0 1.22-.347 2.159-1.045 2.821-.698.665-1.541.998-2.533.998-1.003 0-1.849-.334-2.541-.998-.692-.662-1.04-1.601-1.04-2.821V6.169h1.74zm14.904 0v1.649h-4.135v1.94h3.819v1.649h-3.819v1.991h4.135v1.649h-5.875V6.168h5.875zm17.964-.001v1.649H80.34v7.23H78.6v-7.23h-2.419V6.168h6.581z" style="fill:var(--color1, #fff)"/>
    </symbol>
    <symbol id="icon-facebook" viewBox="0 0 32 32">
      <path fill="#fff" d="M18.129 32h-3.935c-1.009 0-1.816-.855-1.816-1.912V18.113H9.15c-1.009 0-1.816-.855-1.816-1.912v-3.472c0-1.057.807-1.912 1.816-1.912h3.128v-3.17c0-4.579 2.724-7.648 6.76-7.648h3.027c1.009 0 1.816.855 1.816 1.912v4.075c0 1.057-.807 1.912-1.816 1.912h-2.169v2.868h2.875c.605.05 1.11.302 1.463.704.353.453.505 1.057.404 1.61l-.605 3.421c-.101.906-.858 1.56-1.816 1.56h-2.32v12.025c0 1.006-.807 1.912-1.766 1.912zm-4.894-15.648c.505 0 .908.402.908.906v12.83c0 .101.05.151.05.151h3.935s.05-.05.05-.151V17.157c0-.503.404-.906.908-.906h3.178s.05 0 .05-.05v-.05l.605-3.371c0-.101 0-.151-.05-.201 0 0-.05-.05-.101-.05h-3.733a.902.902 0 0 1-.908-.906V8.051c0-.906.151-1.912 1.866-1.912h2.068s.05-.05.05-.151V1.963c0-.101-.05-.151-.05-.151h-2.976c-3.027 0-4.994 2.314-4.994 5.887v4.075a.904.904 0 0 1-.908.906H9.147s-.05.05-.05.151v3.472c0 .101.05.151.05.151l4.086-.101z" style="fill:var(--color1, #fff)"/>
    </symbol>
    <symbol id="icon-instagram" viewBox="0 0 32 32">
      <path fill="#fff" d="M24.038 0C28.422 0 32 3.533 32 7.924v16.101C32 28.416 28.472 32 24.088 32H7.962C3.578 32 0 28.467 0 24.076V7.925A7.9 7.9 0 0 1 7.912.001h16.126zm0 1.767H7.912c-3.376 0-6.148 2.776-6.148 6.158v16.151c0 3.432 2.772 6.208 6.148 6.208h16.176c3.376 0 6.148-2.776 6.148-6.208V7.975a6.199 6.199 0 0 0-6.198-6.208zM15.975 8.58c4.082 0 7.408 3.331 7.408 7.42s-3.326 7.42-7.408 7.42c-4.082 0-7.408-3.331-7.408-7.42s3.326-7.42 7.408-7.42zm0 1.767c-3.124 0-5.644 2.524-5.644 5.653s2.52 5.653 5.644 5.653 5.644-2.524 5.644-5.653-2.52-5.653-5.644-5.653zm8.113-5.401c1.058 0 1.915.858 1.915 1.918a1.916 1.916 0 1 1-3.83 0c0-1.06.857-1.918 1.915-1.918z" style="fill:var(--color1, #fff)"/>
    </symbol>
    <symbol id="icon-bag" viewBox="0 0 32 32">
      <path fill="#52503b" d="M27.948 6.804H22.39V4.98a3.652 3.652 0 0 0-3.636-3.647h-5.506C11.222 1.333 9.612 3 9.612 4.98v1.824H4.054a4.063 4.063 0 0 0-4.052 4.064v5.106c0 .521.416.938.935.938h.468v9.899a3.841 3.841 0 0 0 3.844 3.856h21.506a3.84 3.84 0 0 0 3.844-3.856v-9.899h.468a.933.933 0 0 0 .935-.938v-5.106a4.063 4.063 0 0 0-4.052-4.064zM11.429 4.98c0-.99.831-1.824 1.818-1.824h5.455c.987 0 1.818.834 1.818 1.824v1.824h-9.091V4.98zM1.87 10.868c0-1.198.987-2.24 2.234-2.24H28c1.195 0 2.234.99 2.234 2.24v4.22H1.87v-4.22zm26.909 15.891a2.032 2.032 0 0 1-2.026 2.032H5.247a2.032 2.032 0 0 1-2.026-2.032V16.86h6.39v3.23c0 .521.416.938.935.938s.935-.417.935-.938v-3.23h9.143v3.23c0 .521.416.938.935.938s.935-.417.935-.938v-3.23h6.39v9.899h-.104z" style="fill:var(--color2, #52503b)"/>
    </symbol>
    <symbol id="icon-kitchen" viewBox="0 0 32 32">
      <path fill="#52503b" d="M28.187 0H9.421C7.639 0 6.223 1.403 6.223 3.169v2.493c0 1.455.944 2.649 2.306 3.013v2.078c0 .519.419.935.944.935s.943-.416.943-.935V8.831h10.746c.734 0 1.363.623 1.363 1.351v11.636c0 .727-.629 1.351-1.363 1.351H12.67a5.915 5.915 0 0 0 2.306-4.675.936.936 0 0 0-.944-.935H3.81a.936.936 0 0 0-.944.935c0 1.87.891 3.584 2.306 4.675h-1.31c-1.782 0-3.198 1.403-3.198 3.169v2.494c0 1.766 1.415 3.169 3.198 3.169h24.27c1.782 0 3.198-1.403 3.198-3.169V3.17c.052-1.714-1.415-3.169-3.145-3.169zM12.985 19.377c-.419 1.87-2.097 3.221-4.089 3.221s-3.669-1.403-4.089-3.221h8.177zm16.565 9.454c0 .727-.629 1.351-1.363 1.351H3.864c-.734 0-1.363-.623-1.363-1.351v-2.494c0-.727.629-1.351 1.363-1.351h17.194c1.782 0 3.198-1.403 3.198-3.169V10.181c0-1.766-1.415-3.169-3.198-3.169H9.421c-.734 0-1.363-.623-1.363-1.351V3.167c0-.727.629-1.351 1.363-1.351h18.714c.734 0 1.363.623 1.363 1.351v25.662h.052z" style="fill:var(--color2, #52503b)"/>
    </symbol>
    <symbol id="icon-wineglass" viewBox="0 0 32 32">
      <path fill="#52503b" d="M23.322 21.316a9.803 9.803 0 0 0 2.661-7.313l-.851-11.151c-.106-1.608-1.49-2.853-3.139-2.853H10.021c-1.649 0-3.033 1.245-3.139 2.853l-.851 11.151c-.213 2.697.745 5.342 2.66 7.313 1.65 1.763 3.938 2.852 6.385 3.06v5.757h-4.15c-.532 0-.958.415-.958.934s.426.933.958.933h10.163c.532 0 .958-.415.958-.933s-.426-.934-.958-.934h-4.15v-5.757c2.448-.207 4.736-1.297 6.385-3.06zM10.02 1.815h11.972c.639 0 1.224.519 1.277 1.141l.372 4.668H8.423l.372-4.668c0-.622.585-1.141 1.224-1.141zM7.945 14.107l.319-4.616h15.484l.319 4.616c.16 2.23-.585 4.305-2.128 5.964-1.543 1.608-3.671 2.541-5.959 2.541s-4.363-.882-5.959-2.541c-1.49-1.608-2.235-3.734-2.075-5.964z" style="fill:var(--color2, #52503b)"/>
    </symbol>
    <symbol id="icon-mountain" viewBox="0 0 32 32">
      <path fill="#52503b" d="m20.571 10.089.236.009c1.088.082 1.977.728 2.413 1.731l6.078 14.38h1.766c.519 0 .935.358.935.87s-.416.921-.935.921H.934c-.519 0-.935-.358-.935-.87s.416-.921.935-.921h1.143l5.299-12.793c.416-1.075 1.403-1.74 2.597-1.74 1.195.051 2.182.665 2.649 1.74l2.39 5.578 2.961-7.164c.416-1.075 1.403-1.74 2.597-1.74zm0 1.843-.051.002a1.024 1.024 0 0 0-.884.612l-3.688 8.853 2.078 4.861h1.714v-1.228c-1.039-.461-1.766-1.689-1.766-3.224 0-1.945 1.195-3.429 2.649-3.429s2.649 1.535 2.649 3.429c0 1.535-.675 2.763-1.714 3.224v1.228h5.766l-5.818-13.714c-.208-.563-.779-.614-.935-.614zM9.974 13.518c-.156 0-.675.051-.935.614L4 26.26h12.052l-5.143-12.128c-.208-.563-.779-.614-.935-.614zm10.649 6.601c-.312 0-.831.614-.831 1.637s.468 1.638.831 1.638.831-.614.831-1.638c0-1.023-.52-1.637-.831-1.637zM27.377 4c1.818 0 3.273 1.433 3.273 3.224s-1.506 3.224-3.273 3.224c-1.766 0-3.273-1.433-3.273-3.224S25.558 4 27.377 4zm0 1.842c-.779 0-1.455.614-1.455 1.433s.623 1.433 1.455 1.433c.831 0 1.455-.614 1.455-1.433s-.675-1.433-1.455-1.433z" style="fill:var(--color2, #52503b)"/>
    </symbol>
    <symbol id="icon-pizza" viewBox="0 0 32 32">
      <path fill="#52503b" d="M31.878 18.375c-1.145-3.64-3.748-7.592-7.236-11.077C21.206 3.814 17.25 1.266 13.606.122c-1.301-.416-2.759.26-3.227 1.56L.176 28.463c-.364.988-.156 2.028.573 2.756.521.52 1.145.78 1.822.78.312 0 .625-.052.937-.156l15.669-5.98c.052 0 .052 0 .104-.052l1.874-.728 9.11-3.484a2.583 2.583 0 0 0 1.614-3.224zM2.883 30.076c-.416.156-.729-.104-.833-.156-.104-.104-.364-.364-.156-.832l2.186-5.72c.521 1.144 1.614 1.924 2.967 1.924 1.77 0 3.228-1.456 3.228-3.224s-1.458-3.224-3.228-3.224c-.468 0-.937.104-1.353.312l4.06-10.713c.677.416 1.353.832 2.03 1.352a3.177 3.177 0 0 0-1.353 2.6 3.242 3.242 0 0 0 3.227 3.224 3.204 3.204 0 0 0 2.967-1.976c2.499 2.34 4.945 5.148 7.028 8.58l-1.249.468c0-1.768-1.458-3.224-3.228-3.224s-3.227 1.456-3.227 3.224c0 .832.312 1.56.833 2.132L2.883 30.075zm2.707-8.009c0-.78.625-1.404 1.406-1.404s1.406.624 1.406 1.404c0 .78-.625 1.404-1.406 1.404s-1.406-.624-1.406-1.404zm9.474-9.776v.104c0 .78-.625 1.404-1.405 1.404s-1.405-.624-1.405-1.404c0-.728.521-1.3 1.249-1.404.521.416 1.041.832 1.562 1.3zm3.748 11.753c-.625-.156-1.093-.728-1.093-1.352 0-.78.625-1.404 1.405-1.404s1.405.624 1.405 1.404c0 .312-.104.572-.26.78l-1.458.572zm10.88-4.161-4.321 1.664c-2.551-4.316-5.726-7.748-8.797-10.401-.052 0-.052-.052-.104-.052a31.476 31.476 0 0 0-2.186-1.716l-.052-.052a56.058 56.058 0 0 0-3.852-2.6l1.666-4.42a.783.783 0 0 1 .729-.52c.104 0 .156 0 .26.052 3.332 1.04 7.08 3.536 10.307 6.76s5.726 7.02 6.767 10.349c.156.364-.052.78-.417.936z" style="fill:var(--color2, #52503b)"/>
    </symbol>
		    <symbol id="icon-conditioner" viewBox="0 0 32 32">
      <path fill="#52503b" d="M29.506 8A2.516 2.516 0 0 1 32 10.507V21.44c0 1.44-1.143 2.56-2.494 2.56H2.493c-1.351 0-2.442-1.12-2.494-2.453V10.56C-.001 9.12 1.142 8 2.493 8h27.013zM15.117 18.88H9.403v3.253h5.714V18.88zm7.532 0h-5.714v3.253h5.714V18.88zm-15.065 0H1.87v2.613c0 .373.26.64.623.64h5.091V18.88zm22.546 0h-5.714v3.253h5.091c.364 0 .675-.267.623-.64V18.88zm-.624-9.013H2.493c-.364 0-.623.267-.623.64v6.56h28.312V10.56c0-.373-.312-.693-.675-.693zm-3.064 2.56c.519 0 .935.427.935.96s-.416.96-.935.96h-3.325c-.519 0-.935-.427-.935-.96s.416-.96.935-.96h3.325z" style="fill:var(--color1, #52503b)"/>
    </symbol>
    <symbol id="icon-trees" viewBox="0 0 32 32">
      <path fill="#52503b" d="m25.878 10.796.173.009c.397.044.744.238.972.549l3.018 4.011c.312.406.364.965.104 1.421a1.762 1.762 0 0 1-.625.609l2.29 3.808c.26.457.26.965-.052 1.421-.208.457-.676.711-1.197.711h-3.747v4.417c0 .508-.416.914-.937.914s-.937-.406-.937-.914v-4.417h-3.799c-.468 0-.937-.305-1.197-.711s-.26-.965 0-1.371l2.29-3.858c-.26-.102-.468-.355-.625-.609a1.286 1.286 0 0 1 .104-1.421l3.018-4.011c.26-.355.677-.558 1.145-.558zM8.601 3.333c.468 0 .885.203 1.145.558l4.892 6.397c.312.406.364.965.104 1.421s-.729.762-1.301.762l3.695 6.346c.26.406.26.965 0 1.371-.208.406-.676.66-1.197.66H9.59v6.854c0 .508-.416.914-.937.914s-.937-.406-.937-.914v-6.854H1.419c-.52 0-.989-.305-1.249-.762-.26-.406-.208-.965.052-1.371l4.059-6.244h-.468c-.52 0-.989-.305-1.249-.762s-.208-1.015.104-1.421l4.788-6.397c.26-.355.677-.558 1.145-.558zm17.225 9.494-2.342 3.097c.208.102.416.305.52.508.26.406.26.965 0 1.371l-2.186 3.706h8.014l-2.186-3.706a1.302 1.302 0 0 1 0-1.371c.104-.203.312-.406.52-.508l-2.342-3.097zM8.601 5.415l-4.007 5.331h.364c.52 0 1.041.305 1.249.711s.208.965-.052 1.371l-4.007 6.244h13.01l-3.695-6.295a1.302 1.302 0 0 1 0-1.371c.26-.355.677-.66 1.145-.66L8.601 5.415z" style="fill:var(--color1, #52503b)"/>
    </symbol>
    <symbol id="icon-stove" viewBox="0 0 32 32">
      <path fill="#52503b" d="M29.455 0C30.806 0 31.949 1.093 32 2.446v27.057a2.497 2.497 0 0 1-2.494 2.498H2.493a2.497 2.497 0 0 1-2.494-2.498V2.446A2.441 2.441 0 0 1 2.441 0h27.013zm0 1.769H2.442a.687.687 0 0 0-.675.676v27.057c0 .364.312.676.675.676h27.013a.687.687 0 0 0 .675-.676V2.445a.688.688 0 0 0-.675-.676zm-9.507 24.559c.519 0 .935.416.935.937s-.416.937-.935.937h-.779c-.519 0-.935-.416-.935-.937s.416-.937.935-.937h.779zm4.831 0c.519 0 .935.416.935.937s-.416.937-.935.937H24c-.519 0-.935-.416-.935-.937s.416-.937.935-.937h.779zm-15.376-9.99c2.182 0 4 1.821 4 4.006s-1.818 4.006-4 4.006-4-1.821-4-4.006 1.818-4.006 4-4.006zm13.091 0c2.234 0 4 1.821 4 4.006s-1.818 4.006-4 4.006-4-1.821-4-4.006 1.818-4.006 4-4.006zM9.403 18.159c-1.195 0-2.182.989-2.182 2.185s.987 2.185 2.182 2.185c1.195 0 2.182-.989 2.182-2.185s-.987-2.185-2.182-2.185zm13.091 0c-1.195 0-2.182.989-2.182 2.185s.987 2.185 2.182 2.185c1.195 0 2.182-.989 2.182-2.185s-.987-2.185-2.182-2.185zM9.403 4.735c2.182 0 4 1.769 4 4.006 0 2.185-1.818 4.007-4 4.007s-4-1.821-4-4.007 1.818-4.006 4-4.006zm13.091 0c2.234 0 4 1.769 4 4.006 0 2.185-1.818 4.007-4 4.007s-4-1.821-4-4.007c0-2.185 1.818-4.006 4-4.006zM9.403 6.556c-1.195 0-2.182.989-2.182 2.185s.987 2.185 2.182 2.185c1.195 0 2.182-.989 2.182-2.185s-.987-2.185-2.182-2.185zm13.091 0c-1.195 0-2.182.989-2.182 2.185s.987 2.185 2.182 2.185c1.195 0 2.182-.989 2.182-2.185s-.987-2.185-2.182-2.185z" style="fill:var(--color1, #52503b)"/>
    </symbol>    <symbol id="icon-conditioner" viewBox="0 0 32 32">
      <path fill="#52503b" d="M29.506 8A2.516 2.516 0 0 1 32 10.507V21.44c0 1.44-1.143 2.56-2.494 2.56H2.493c-1.351 0-2.442-1.12-2.494-2.453V10.56C-.001 9.12 1.142 8 2.493 8h27.013zM15.117 18.88H9.403v3.253h5.714V18.88zm7.532 0h-5.714v3.253h5.714V18.88zm-15.065 0H1.87v2.613c0 .373.26.64.623.64h5.091V18.88zm22.546 0h-5.714v3.253h5.091c.364 0 .675-.267.623-.64V18.88zm-.624-9.013H2.493c-.364 0-.623.267-.623.64v6.56h28.312V10.56c0-.373-.312-.693-.675-.693zm-3.064 2.56c.519 0 .935.427.935.96s-.416.96-.935.96h-3.325c-.519 0-.935-.427-.935-.96s.416-.96.935-.96h3.325z" style="fill:var(--color1, #52503b)"/>
    </symbol>
    <symbol id="icon-trees" viewBox="0 0 32 32">
      <path fill="#52503b" d="m25.878 10.796.173.009c.397.044.744.238.972.549l3.018 4.011c.312.406.364.965.104 1.421a1.762 1.762 0 0 1-.625.609l2.29 3.808c.26.457.26.965-.052 1.421-.208.457-.676.711-1.197.711h-3.747v4.417c0 .508-.416.914-.937.914s-.937-.406-.937-.914v-4.417h-3.799c-.468 0-.937-.305-1.197-.711s-.26-.965 0-1.371l2.29-3.858c-.26-.102-.468-.355-.625-.609a1.286 1.286 0 0 1 .104-1.421l3.018-4.011c.26-.355.677-.558 1.145-.558zM8.601 3.333c.468 0 .885.203 1.145.558l4.892 6.397c.312.406.364.965.104 1.421s-.729.762-1.301.762l3.695 6.346c.26.406.26.965 0 1.371-.208.406-.676.66-1.197.66H9.59v6.854c0 .508-.416.914-.937.914s-.937-.406-.937-.914v-6.854H1.419c-.52 0-.989-.305-1.249-.762-.26-.406-.208-.965.052-1.371l4.059-6.244h-.468c-.52 0-.989-.305-1.249-.762s-.208-1.015.104-1.421l4.788-6.397c.26-.355.677-.558 1.145-.558zm17.225 9.494-2.342 3.097c.208.102.416.305.52.508.26.406.26.965 0 1.371l-2.186 3.706h8.014l-2.186-3.706a1.302 1.302 0 0 1 0-1.371c.104-.203.312-.406.52-.508l-2.342-3.097zM8.601 5.415l-4.007 5.331h.364c.52 0 1.041.305 1.249.711s.208.965-.052 1.371l-4.007 6.244h13.01l-3.695-6.295a1.302 1.302 0 0 1 0-1.371c.26-.355.677-.66 1.145-.66L8.601 5.415z" style="fill:var(--color1, #52503b)"/>
    </symbol>
    <symbol id="icon-stove" viewBox="0 0 32 32">
      <path fill="#52503b" d="M29.455 0C30.806 0 31.949 1.093 32 2.446v27.057a2.497 2.497 0 0 1-2.494 2.498H2.493a2.497 2.497 0 0 1-2.494-2.498V2.446A2.441 2.441 0 0 1 2.441 0h27.013zm0 1.769H2.442a.687.687 0 0 0-.675.676v27.057c0 .364.312.676.675.676h27.013a.687.687 0 0 0 .675-.676V2.445a.688.688 0 0 0-.675-.676zm-9.507 24.559c.519 0 .935.416.935.937s-.416.937-.935.937h-.779c-.519 0-.935-.416-.935-.937s.416-.937.935-.937h.779zm4.831 0c.519 0 .935.416.935.937s-.416.937-.935.937H24c-.519 0-.935-.416-.935-.937s.416-.937.935-.937h.779zm-15.376-9.99c2.182 0 4 1.821 4 4.006s-1.818 4.006-4 4.006-4-1.821-4-4.006 1.818-4.006 4-4.006zm13.091 0c2.234 0 4 1.821 4 4.006s-1.818 4.006-4 4.006-4-1.821-4-4.006 1.818-4.006 4-4.006zM9.403 18.159c-1.195 0-2.182.989-2.182 2.185s.987 2.185 2.182 2.185c1.195 0 2.182-.989 2.182-2.185s-.987-2.185-2.182-2.185zm13.091 0c-1.195 0-2.182.989-2.182 2.185s.987 2.185 2.182 2.185c1.195 0 2.182-.989 2.182-2.185s-.987-2.185-2.182-2.185zM9.403 4.735c2.182 0 4 1.769 4 4.006 0 2.185-1.818 4.007-4 4.007s-4-1.821-4-4.007 1.818-4.006 4-4.006zm13.091 0c2.234 0 4 1.769 4 4.006 0 2.185-1.818 4.007-4 4.007s-4-1.821-4-4.007c0-2.185 1.818-4.006 4-4.006zM9.403 6.556c-1.195 0-2.182.989-2.182 2.185s.987 2.185 2.182 2.185c1.195 0 2.182-.989 2.182-2.185s-.987-2.185-2.182-2.185zm13.091 0c-1.195 0-2.182.989-2.182 2.185s.987 2.185 2.182 2.185c1.195 0 2.182-.989 2.182-2.185s-.987-2.185-2.182-2.185z" style="fill:var(--color1, #52503b)"/>
    </symbol>
		<symbol id="icon-filled-star" viewBox="0 0 32 32">
<path fill="#52503b" d="M31.276 11.538l-9.991-1.547-4.526-9.493c-0.137-0.296-0.432-0.498-0.773-0.498s-0.636 0.202-0.771 0.492l-0.002 0.005-4.526 9.547-9.936 1.493c-0.718 0.112-0.994 1.049-0.441 1.547l7.228 7.449-1.707 10.436c-0.11 0.718 0.606 1.324 1.269 0.884l8.997-4.914 8.942 4.914c0.608 0.331 1.38-0.22 1.214-0.884l-1.71-10.434 7.23-7.451c0.441-0.498 0.22-1.435-0.498-1.547z"></path>
</symbol>
    <symbol id="icon-arrow-right" viewBox="0 0 32 32">
      <path fill="#000000" d="m19.414 27.414 10-10a2 2 0 0 0 0-2.828l-10-10a2 2 0 1 0-2.828 2.828L23.172 14H4a2 2 0 1 0 0 4h19.172l-6.586 6.586c-.39.39-.586.902-.586 1.414s.195 1.024.586 1.414a2 2 0 0 0 2.828 0z"/>
    </symbol>
    <symbol id="icon-arrow-left" viewBox="0 0 32 32">
      <path  fill="#000000" d="m12.586 27.414-10-10a2 2 0 0 1 0-2.828l10-10a2 2 0 1 1 2.828 2.828L8.828 14H28a2 2 0 1 1 0 4H8.828l6.586 6.586c.39.39.586.902.586 1.414s-.195 1.024-.586 1.414a2 2 0 0 1-2.828 0z"/>
    </symbol>
		<symbol id="icon-wifi" viewBox="0 0 32 32">
<path fill="#52503b"  d="M27.973 23.396c2.249 0 4.027 1.804 4.027 3.969s-1.83 3.969-4.027 3.969c-2.196 0-4.026-1.804-4.026-3.969s1.83-3.968 4.027-3.968zM29.439 0.667c0.523 0 0.94 0.412 0.94 0.928s-0.418 0.927-0.94 0.927c-15.216 0-27.609 12.164-27.556 27.214 0 0.516-0.418 0.927-0.942 0.927-0.003 0-0.007 0-0.011 0-0.513 0-0.929-0.415-0.931-0.928v-0c0-16.028 13.176-29.016 29.438-29.068zM29.386 9.068c0.524 0 0.942 0.412 0.942 0.928 0 0.001 0 0.001 0 0.002 0 0.483-0.392 0.875-0.875 0.875-0.005 0-0.010-0-0.015-0h0.001c-10.563 0-19.138 8.452-19.084 18.812 0 0.516-0.419 0.927-0.942 0.927-0.003 0-0.007 0-0.011 0-0.513 0-0.929-0.415-0.931-0.928v-0c0-11.339 9.36-20.616 20.916-20.616zM29.386 17.366c0.524 0 0.942 0.412 0.942 0.927s-0.366 0.876-0.889 0.876c-5.857 0-10.667 4.69-10.667 10.515 0 0.516-0.418 0.927-0.942 0.927-0.003 0-0.007 0-0.011 0-0.513 0-0.929-0.415-0.931-0.928v-0c0-6.803 5.595-12.317 12.497-12.317zM27.975 25.252c-1.203 0-2.196 0.98-2.196 2.164s0.994 2.165 2.196 2.165c1.204 0 2.196-0.98 2.196-2.165s-0.993-2.164-2.196-2.164z"></path>
</symbol>
  </defs>
</svg>
